<mxfile host="app.diagrams.net" modified="2022-07-27T05:43:29.876Z" agent="5.0 (X11)" etag="7qv_vx28Tm6swCChixBs" version="20.2.1" type="github">
  <diagram id="yLv3JYff7LEZBGskIHyv" name="Page-1">
    <mxGraphModel dx="2133" dy="2525" grid="1" gridSize="10" guides="1" tooltips="1" connect="1" arrows="1" fold="1" page="1" pageScale="1" pageWidth="827" pageHeight="1169" math="0" shadow="0">
      <root>
        <mxCell id="0" />
        <mxCell id="1" parent="0" />
        <mxCell id="nbrZFCDqP75PN8uy-wg--3" style="edgeStyle=orthogonalEdgeStyle;rounded=0;orthogonalLoop=1;jettySize=auto;html=1;exitX=0.5;exitY=1;exitDx=0;exitDy=0;entryX=0.5;entryY=0;entryDx=0;entryDy=0;" parent="1" source="nbrZFCDqP75PN8uy-wg--1" target="nbrZFCDqP75PN8uy-wg--2" edge="1">
          <mxGeometry relative="1" as="geometry" />
        </mxCell>
        <mxCell id="nbrZFCDqP75PN8uy-wg--1" value="&lt;div style=&quot;color: rgb(212, 212, 212); background-color: rgb(30, 30, 30); font-family: &amp;quot;Droid Sans Mono&amp;quot;, &amp;quot;monospace&amp;quot;, monospace; font-weight: normal; font-size: 14px; line-height: 19px;&quot;&gt;&lt;div&gt;&lt;div style=&quot;color: rgb(212, 212, 212); background-color: rgb(30, 30, 30); font-family: &amp;quot;Droid Sans Mono&amp;quot;, &amp;quot;monospace&amp;quot;, monospace; font-weight: normal; font-size: 14px; line-height: 19px;&quot;&gt;&lt;div&gt;&lt;span style=&quot;color: #4ec9b0;&quot;&gt;StdCmdPaste&lt;/span&gt;&lt;span style=&quot;color: #d4d4d4;&quot;&gt;::&lt;/span&gt;&lt;span style=&quot;color: #dcdcaa;&quot;&gt;activated&lt;/span&gt;&lt;/div&gt;&lt;/div&gt;&lt;/div&gt;&lt;/div&gt;" style="rounded=1;whiteSpace=wrap;html=1;" parent="1" vertex="1">
          <mxGeometry x="294" y="330" width="206" height="60" as="geometry" />
        </mxCell>
        <mxCell id="F9WaxRBCYqItP6JU5DqU-3" style="edgeStyle=orthogonalEdgeStyle;rounded=0;orthogonalLoop=1;jettySize=auto;html=1;exitX=0.5;exitY=1;exitDx=0;exitDy=0;entryX=0.5;entryY=0;entryDx=0;entryDy=0;" parent="1" source="nbrZFCDqP75PN8uy-wg--2" target="F9WaxRBCYqItP6JU5DqU-2" edge="1">
          <mxGeometry relative="1" as="geometry" />
        </mxCell>
        <mxCell id="nbrZFCDqP75PN8uy-wg--2" value="&lt;div style=&quot;color: rgb(212, 212, 212); background-color: rgb(30, 30, 30); font-family: &amp;quot;Droid Sans Mono&amp;quot;, &amp;quot;monospace&amp;quot;, monospace; font-weight: normal; font-size: 14px; line-height: 19px;&quot;&gt;&lt;div&gt;&lt;span style=&quot;color: #dcdcaa;&quot;&gt;insertFromMimeData&lt;/span&gt;&lt;/div&gt;&lt;/div&gt;" style="rounded=1;whiteSpace=wrap;html=1;" parent="1" vertex="1">
          <mxGeometry x="307" y="460" width="180" height="50" as="geometry" />
        </mxCell>
        <mxCell id="F9WaxRBCYqItP6JU5DqU-2" value="" style="swimlane;startSize=0;" parent="1" vertex="1">
          <mxGeometry x="150" y="540" width="520" height="460" as="geometry" />
        </mxCell>
        <mxCell id="F9WaxRBCYqItP6JU5DqU-4" value="&lt;div style=&quot;color: rgb(212, 212, 212); background-color: rgb(30, 30, 30); font-family: &amp;quot;Droid Sans Mono&amp;quot;, &amp;quot;monospace&amp;quot;, monospace; font-weight: normal; font-size: 14px; line-height: 19px;&quot;&gt;&lt;div&gt;&lt;span style=&quot;color: #9cdcfe;&quot;&gt;doc&lt;/span&gt;&lt;span style=&quot;color: #d4d4d4;&quot;&gt;-&amp;gt;&lt;/span&gt;&lt;span style=&quot;color: #dcdcaa;&quot;&gt;openTransaction&lt;/span&gt;&lt;span style=&quot;color: #d4d4d4;&quot;&gt;(&lt;/span&gt;&lt;span style=&quot;color: #ce9178;&quot;&gt;&quot;Paste&quot;&lt;/span&gt;&lt;span style=&quot;color: #d4d4d4;&quot;&gt;);&lt;/span&gt;&lt;/div&gt;&lt;/div&gt;" style="rounded=1;whiteSpace=wrap;html=1;" parent="F9WaxRBCYqItP6JU5DqU-2" vertex="1">
          <mxGeometry x="115" y="30" width="290" height="60" as="geometry" />
        </mxCell>
        <mxCell id="0UDYCBRvDotDzpu7DMO2-1" value="&lt;div style=&quot;color: rgb(212, 212, 212); background-color: rgb(30, 30, 30); font-family: &amp;quot;Droid Sans Mono&amp;quot;, &amp;quot;monospace&amp;quot;, monospace; font-weight: normal; font-size: 14px; line-height: 19px;&quot;&gt;&lt;div&gt;&lt;span style=&quot;color: #dcdcaa;&quot;&gt;addRootObjectsToGroup&lt;/span&gt;&lt;span style=&quot;color: #d4d4d4;&quot;&gt;(&lt;/span&gt;&lt;span style=&quot;color: #9cdcfe;&quot;&gt;newObj&lt;/span&gt;&lt;span style=&quot;color: #d4d4d4;&quot;&gt;, &lt;/span&gt;&lt;span style=&quot;color: #9cdcfe;&quot;&gt;grp&lt;/span&gt;&lt;span style=&quot;color: #d4d4d4;&quot;&gt;.&lt;/span&gt;&lt;span style=&quot;color: #dcdcaa;&quot;&gt;front&lt;/span&gt;&lt;span style=&quot;color: #d4d4d4;&quot;&gt;());&lt;/span&gt;&lt;/div&gt;&lt;/div&gt;" style="rounded=1;whiteSpace=wrap;html=1;fontSize=14;" parent="F9WaxRBCYqItP6JU5DqU-2" vertex="1">
          <mxGeometry x="59.75" y="220" width="400.5" height="60" as="geometry" />
        </mxCell>
        <mxCell id="0UDYCBRvDotDzpu7DMO2-3" value="&lt;div style=&quot;color: rgb(212, 212, 212); background-color: rgb(30, 30, 30); font-family: &amp;quot;Droid Sans Mono&amp;quot;, &amp;quot;monospace&amp;quot;, monospace; font-weight: normal; font-size: 14px; line-height: 19px;&quot;&gt;&lt;div&gt;&lt;span style=&quot;color: #9cdcfe;&quot;&gt;newObj&lt;/span&gt;&lt;span style=&quot;color: #d4d4d4;&quot;&gt; = &lt;/span&gt;&lt;span style=&quot;color: #9cdcfe;&quot;&gt;mimeView&lt;/span&gt;&lt;span style=&quot;color: #d4d4d4;&quot;&gt;.&lt;/span&gt;&lt;span style=&quot;color: #dcdcaa;&quot;&gt;importObjects&lt;/span&gt;&lt;span style=&quot;color: #d4d4d4;&quot;&gt;(&lt;/span&gt;&lt;span style=&quot;color: #9cdcfe;&quot;&gt;str&lt;/span&gt;&lt;span style=&quot;color: #d4d4d4;&quot;&gt;);&lt;/span&gt;&lt;/div&gt;&lt;/div&gt;" style="rounded=1;whiteSpace=wrap;html=1;fontSize=14;" parent="F9WaxRBCYqItP6JU5DqU-2" vertex="1">
          <mxGeometry x="58.25" y="140" width="403.5" height="40" as="geometry" />
        </mxCell>
        <mxCell id="F9WaxRBCYqItP6JU5DqU-6" value="&lt;div style=&quot;color: rgb(212, 212, 212); background-color: rgb(30, 30, 30); font-family: &amp;quot;Droid Sans Mono&amp;quot;, &amp;quot;monospace&amp;quot;, monospace; font-weight: normal; font-size: 14px; line-height: 19px;&quot;&gt;&lt;div&gt;&lt;span style=&quot;color: #dcdcaa;&quot;&gt;GetApplication&lt;/span&gt;&lt;span style=&quot;color: #d4d4d4;&quot;&gt;().&lt;/span&gt;&lt;span style=&quot;color: #dcdcaa;&quot;&gt;setActiveTransaction&lt;/span&gt;&lt;span style=&quot;color: #d4d4d4;&quot;&gt;(&lt;/span&gt;&lt;span style=&quot;color: #9cdcfe;&quot;&gt;name&lt;/span&gt;&lt;span style=&quot;color: #d4d4d4;&quot;&gt;?&lt;/span&gt;&lt;span style=&quot;color: #9cdcfe;&quot;&gt;name&lt;/span&gt;&lt;span style=&quot;color: #d4d4d4;&quot;&gt;:&lt;/span&gt;&lt;span style=&quot;color: #ce9178;&quot;&gt;&quot;&amp;lt;empty&amp;gt;&quot;&lt;/span&gt;&lt;span style=&quot;color: #d4d4d4;&quot;&gt;);&lt;/span&gt;&lt;/div&gt;&lt;/div&gt;" style="rounded=1;whiteSpace=wrap;html=1;" parent="1" vertex="1">
          <mxGeometry x="730" y="525" width="530" height="60" as="geometry" />
        </mxCell>
        <mxCell id="F9WaxRBCYqItP6JU5DqU-7" style="edgeStyle=orthogonalEdgeStyle;rounded=0;orthogonalLoop=1;jettySize=auto;html=1;exitX=1;exitY=0.5;exitDx=0;exitDy=0;entryX=0;entryY=0.5;entryDx=0;entryDy=0;" parent="1" source="F9WaxRBCYqItP6JU5DqU-4" target="F9WaxRBCYqItP6JU5DqU-6" edge="1">
          <mxGeometry relative="1" as="geometry" />
        </mxCell>
        <mxCell id="F9WaxRBCYqItP6JU5DqU-8" value="Seems to be Undo/Redo Related" style="text;html=1;strokeColor=none;fillColor=none;align=center;verticalAlign=middle;whiteSpace=wrap;rounded=0;fontSize=14;" parent="1" vertex="1">
          <mxGeometry x="780" y="480" width="370" height="40" as="geometry" />
        </mxCell>
        <mxCell id="0UDYCBRvDotDzpu7DMO2-4" style="edgeStyle=orthogonalEdgeStyle;rounded=0;orthogonalLoop=1;jettySize=auto;html=1;exitX=1;exitY=0.5;exitDx=0;exitDy=0;fontSize=14;" parent="1" source="0UDYCBRvDotDzpu7DMO2-3" edge="1">
          <mxGeometry relative="1" as="geometry">
            <mxPoint x="810" y="700" as="targetPoint" />
          </mxGeometry>
        </mxCell>
        <mxCell id="0UDYCBRvDotDzpu7DMO2-6" value="Converts information from ifstream to a vector of App:DocumentObject. I think. I have no idea what&#39;s going on with the conversion between the byte array and the final DocumentObject. Best guess is that it&#39;s a cross-platform compatbility thingy." style="text;html=1;strokeColor=none;fillColor=none;align=center;verticalAlign=middle;whiteSpace=wrap;rounded=0;fontSize=14;" parent="1" vertex="1">
          <mxGeometry x="820" y="610" width="403" height="120" as="geometry" />
        </mxCell>
        <mxCell id="0UDYCBRvDotDzpu7DMO2-13" style="edgeStyle=orthogonalEdgeStyle;rounded=0;orthogonalLoop=1;jettySize=auto;html=1;exitX=0.5;exitY=1;exitDx=0;exitDy=0;entryX=0.5;entryY=0;entryDx=0;entryDy=0;fontSize=14;" parent="1" source="0UDYCBRvDotDzpu7DMO2-8" target="0UDYCBRvDotDzpu7DMO2-10" edge="1">
          <mxGeometry relative="1" as="geometry" />
        </mxCell>
        <mxCell id="0UDYCBRvDotDzpu7DMO2-8" value="This seems to be a potential place to implement &quot;paste into&quot;. Could Body&#39;s implement a similar feature? addObjectsToBody? " style="text;html=1;strokeColor=none;fillColor=none;align=center;verticalAlign=middle;whiteSpace=wrap;rounded=0;fontSize=14;" parent="1" vertex="1">
          <mxGeometry x="780" y="760" width="403" height="70" as="geometry" />
        </mxCell>
        <mxCell id="0UDYCBRvDotDzpu7DMO2-9" style="edgeStyle=orthogonalEdgeStyle;rounded=0;orthogonalLoop=1;jettySize=auto;html=1;exitX=1;exitY=0.5;exitDx=0;exitDy=0;entryX=-0.009;entryY=0.333;entryDx=0;entryDy=0;entryPerimeter=0;fontSize=14;" parent="1" source="0UDYCBRvDotDzpu7DMO2-1" target="0UDYCBRvDotDzpu7DMO2-8" edge="1">
          <mxGeometry relative="1" as="geometry" />
        </mxCell>
        <mxCell id="0UDYCBRvDotDzpu7DMO2-10" value="" style="rounded=1;whiteSpace=wrap;html=1;fontSize=14;" parent="1" vertex="1">
          <mxGeometry x="786.5" y="890" width="390" height="50" as="geometry" />
        </mxCell>
        <mxCell id="0UDYCBRvDotDzpu7DMO2-11" value="&lt;div&gt;&lt;b&gt;Reminder&lt;/b&gt;: std::vector&lt;/div&gt;&lt;div&gt;&lt;div class=&quot;t-li1&quot;&gt;&lt;span class=&quot;t-li&quot;&gt;1)&lt;/span&gt; &lt;code&gt;std::vector&lt;/code&gt; is a sequence container that encapsulates dynamic size arrays.&lt;/div&gt;&lt;br&gt;&lt;div class=&quot;t-li1&quot;&gt;&lt;span class=&quot;t-li&quot;&gt;2)&lt;/span&gt; &lt;code&gt;std::pmr::vector&lt;/code&gt; is an alias template that uses a &lt;a title=&quot;cpp/memory/polymorphic allocator&quot; href=&quot;https://en.cppreference.com/w/cpp/memory/polymorphic_allocator&quot;&gt;polymorphic allocator&lt;/a&gt;.&lt;/div&gt;&lt;p&gt;The elements are stored contiguously, which means that elements can &lt;br&gt;be accessed not only through iterators, but also using offsets to &lt;br&gt;regular pointers to elements. This means that  a pointer to an element &lt;br&gt;of a vector may be passed to any function that expects a pointer to an &lt;br&gt;element of an array.&lt;br&gt;&lt;/p&gt;&lt;/div&gt;" style="text;html=1;strokeColor=none;fillColor=none;align=left;verticalAlign=top;whiteSpace=wrap;rounded=0;fontSize=14;labelPosition=center;verticalLabelPosition=middle;" parent="1" vertex="1">
          <mxGeometry x="30" y="30" width="366" height="300" as="geometry" />
        </mxCell>
        <mxCell id="0UDYCBRvDotDzpu7DMO2-12" value="&lt;div&gt;&lt;b&gt;Reminder&lt;/b&gt;: std::map&lt;br&gt;&lt;/div&gt;&lt;div&gt;&lt;br&gt;&lt;/div&gt;&lt;div&gt;&lt;code&gt;std::map&lt;/code&gt; is a sorted associative container that contains &lt;br&gt;key-value pairs with unique keys. Keys are sorted by using the &lt;br&gt;comparison function &lt;code&gt;Compare&lt;/code&gt;.  Search, removal, and insertion operations have logarithmic complexity. Maps are usually implemented as &lt;a title=&quot;enwiki:Red–black tree&quot; class=&quot;extiw&quot; href=&quot;https://en.wikipedia.org/wiki/Red%E2%80%93black_tree&quot;&gt;red-black trees&lt;/a&gt;.&lt;br&gt;&lt;/div&gt;" style="text;html=1;strokeColor=none;fillColor=none;align=left;verticalAlign=top;whiteSpace=wrap;rounded=0;fontSize=14;labelPosition=center;verticalLabelPosition=middle;" parent="1" vertex="1">
          <mxGeometry x="440" y="30" width="366" height="90" as="geometry" />
        </mxCell>
        <mxCell id="et69Pq7bEssP9toq_pr5-1" value="Selection Handling" style="text;html=1;strokeColor=none;fillColor=none;align=center;verticalAlign=middle;whiteSpace=wrap;rounded=0;fontSize=14;fontStyle=1" vertex="1" parent="1">
          <mxGeometry x="863.25" y="-570" width="203.5" height="30" as="geometry" />
        </mxCell>
        <mxCell id="et69Pq7bEssP9toq_pr5-3" value="Gui::SelectionObject" style="rounded=1;whiteSpace=wrap;html=1;" vertex="1" parent="1">
          <mxGeometry x="1300" y="130" width="180" height="50" as="geometry" />
        </mxCell>
        <mxCell id="et69Pq7bEssP9toq_pr5-4" value="Done partially in Python, rather than C++?" style="text;html=1;strokeColor=none;fillColor=none;align=center;verticalAlign=middle;whiteSpace=wrap;rounded=0;fontSize=14;" vertex="1" parent="1">
          <mxGeometry x="1220" y="260" width="388.5" height="30" as="geometry" />
        </mxCell>
        <mxCell id="et69Pq7bEssP9toq_pr5-7" value="" style="swimlane;startSize=0;fontSize=14;" vertex="1" parent="1">
          <mxGeometry x="871" y="-530" width="370" height="460" as="geometry" />
        </mxCell>
        <mxCell id="et69Pq7bEssP9toq_pr5-5" value="&lt;div style=&quot;color: rgb(212, 212, 212); background-color: rgb(30, 30, 30); font-family: &amp;quot;Droid Sans Mono&amp;quot;, &amp;quot;monospace&amp;quot;, monospace; font-weight: normal; font-size: 14px; line-height: 19px;&quot;&gt;&lt;div&gt;&lt;span style=&quot;color: #4ec9b0;&quot;&gt;SelectionSingleton&lt;/span&gt;&lt;/div&gt;&lt;/div&gt;" style="rounded=0;whiteSpace=wrap;html=1;fontSize=14;glass=0;sketch=1;" vertex="1" parent="et69Pq7bEssP9toq_pr5-7">
          <mxGeometry width="195" height="50" as="geometry" />
        </mxCell>
        <mxCell id="et69Pq7bEssP9toq_pr5-9" value="&lt;div style=&quot;color: rgb(212, 212, 212); background-color: rgb(30, 30, 30); font-family: &amp;quot;Droid Sans Mono&amp;quot;, &amp;quot;monospace&amp;quot;, monospace; font-weight: normal; font-size: 14px; line-height: 19px;&quot;&gt;&lt;div&gt;&lt;span style=&quot;color: #4ec9b0;&quot;&gt;std&lt;/span&gt;&lt;span style=&quot;color: #d4d4d4;&quot;&gt;::&lt;/span&gt;&lt;span style=&quot;color: #4ec9b0;&quot;&gt;vector&lt;/span&gt;&lt;span style=&quot;color: #d4d4d4;&quot;&gt;&amp;lt;&lt;/span&gt;&lt;span style=&quot;color: #4ec9b0;&quot;&gt;SelObj&lt;/span&gt;&lt;span style=&quot;color: #d4d4d4;&quot;&gt;&amp;gt; &lt;/span&gt;&lt;span style=&quot;color: #dcdcaa;&quot;&gt;getSelection&lt;/span&gt;&lt;/div&gt;&lt;/div&gt;" style="rounded=1;whiteSpace=wrap;html=1;glass=0;sketch=0;fontSize=14;" vertex="1" parent="et69Pq7bEssP9toq_pr5-7">
          <mxGeometry x="29.5" y="80" width="311" height="60" as="geometry" />
        </mxCell>
        <mxCell id="et69Pq7bEssP9toq_pr5-11" style="edgeStyle=orthogonalEdgeStyle;rounded=0;orthogonalLoop=1;jettySize=auto;html=1;exitX=1;exitY=0.5;exitDx=0;exitDy=0;fontSize=14;" edge="1" parent="1" source="et69Pq7bEssP9toq_pr5-10" target="et69Pq7bEssP9toq_pr5-9">
          <mxGeometry relative="1" as="geometry" />
        </mxCell>
        <mxCell id="et69Pq7bEssP9toq_pr5-10" value="&lt;div style=&quot;color: rgb(212, 212, 212); background-color: rgb(30, 30, 30); font-family: &amp;quot;Droid Sans Mono&amp;quot;, &amp;quot;monospace&amp;quot;, monospace; font-weight: normal; font-size: 14px; line-height: 19px;&quot;&gt;&lt;div&gt;&lt;span style=&quot;color: #569cd6;&quot;&gt;struct&lt;/span&gt;&lt;span style=&quot;color: #d4d4d4;&quot;&gt; &lt;/span&gt;&lt;span style=&quot;color: #4ec9b0;&quot;&gt;SelObj&lt;/span&gt;&lt;/div&gt;&lt;/div&gt;" style="rounded=1;whiteSpace=wrap;html=1;glass=0;sketch=0;fontSize=14;" vertex="1" parent="1">
          <mxGeometry x="586.19" y="-450" width="160" height="50" as="geometry" />
        </mxCell>
        <mxCell id="et69Pq7bEssP9toq_pr5-12" value="" style="shape=image;verticalLabelPosition=bottom;labelBackgroundColor=default;verticalAlign=top;aspect=fixed;imageAspect=0;image=data:image/png,iVBORw0KGgoAAAANSUhEUgAAAYEAAADHCAYAAAD/L+/hAAAABHNCSVQICAgIfAhkiAAAABl0RVh0U29mdHdhcmUAZ25vbWUtc2NyZWVuc2hvdO8Dvz4AAAAtdEVYdENyZWF0aW9uIFRpbWUAVHVlIDI2IEp1bCAyMDIyIDEwOjI0OjQ1IFBNIFBEVCKDoUwAACAASURBVHic7N17XJRl/v/xl84ww8AIwxmFYUFHBfGYxiabFaxrHloPlKn0TW3zUKbZqlmtab8sd83KMl3XzCJtV/OwpOSBtKTU0FVQVFDRUSYHbBCEgQZhhhn8/TGcPQBGisP1fDx8KDP33Pc1M3h/7uu67/t6twkKHnet06xXcPp2HGfSSgBAGkWXuX+FhCc4m26xP4YMzye20KniHY7E/8jNuAz6nO6+/yX1319jq/W4pN879I0u4Ox772CsuOnLBUEQhDuorf0vGQrfoJpHvTQo2hZQWmCps3CFtZw2UlnVi5rE9vNFymVhtPOXNdAiV5xU/ji5NLCcIAiC8KtV78/lPacQoFEj97qfgEcHI89LIv9S7UUtlFy6CEHR+AT446T0QCJtwpZyErika0f7kX/Fr2MnnFRqXLqOI6Cnuu5yPk/Qbfrn9Hwk7Fe9MUEQBKFhlbtxC8a0w7gO+pAATyfKs5PQbl5Lab2Fy4+u4KegVwl65nNC2loo2PIEZ09ZwPlRQuf8FVV1SXmB+xe8ABSS+/k4si4C6Mnd9DoVgybSIeYDQmRQfuU4hj2Jd+q9CoIgCPW0CQoKuna3GyEIgiDcHbczvC8IgiA4CFEEBEEQWjFRBARBEFoxUQQEQRBasaZc5Cm0MtOmTbvl8ytXrrxDLREE4bciioBwS8s/XX7Dx2c8O+MOt0QQhN+CGA4SBEFoxUQRuAukj82i9+aP7H9WjsZFchsr6TyK0PWz8PZqxLKSLgSuep+OA39Fx899HBUTkrHNzcY6elydeaEEQbh33eHhoE4EPPcBnukvcPKA/s5uurZu84l4zHLbk9m1CX6AgIl/RNXFDymlWHL0mL7dysVvshv1euv2paRtB8mQ6XT/800WknjhPmEc7f8QgrPCikV3HMPqTRTorE1vMEWUpJzA/PNtvBQAOdf6zqDC5UckK6NoYzIjEcNBguAQxDmBpnLthXreaJTa3egXZWC2uCDvGo7K161ZN6MY8xzBj5STv2Y5up/dUT01mqBXn8Ty0npMZU1cmS2XwjVrf12DXFWQf5Q2JvOvW48gCC1K8xUB5f2oH5uCb7Aap7YlmK9oufzNQnJ0JdA2jN9N+4D2npXLRn/CA9EAteYfAvscRLMmUr5zNdbuE/AN8qeN1UDethfIyizHa+wWgq++RWrCEfvybjF0mz6cks8n8lP1ZHceKCOnENwvAhc3J64V6zEeWsH5w6eh9zv0G96regws9PUo+z8ub+D4quvnSrqhsHDcXLO49PE3FBntD5WdO0tRvcWkEcNQj+mPW4Ab/JJL8bebubjxbOOGUSRd8HrIj/J9S8nZpwPAsMoftw+j8YnYhGlfTW9A/kgsXQb3ReFaStn/vuHix/sprSoSqgFoVo1GWTncVPzxLC58ezs9CaCtnDZiCnBBcDjNVARkqAa+SntlImc/m0+JxRV5YASKqqcrTvPTisH81KjhIFc8HxrO5W/mc/TLXNp63Y+rpLzR7XAZ8Dbd/gB5iQs5r8sFz/vxDfZHwmnK017hcBq/bjioqBRrW3/a9fSiYN+VGy7SJnw0mundKN2ynszDuRDYjw5TnyWkeAnaXTd+TR0+Abioyik9W2t4KS+Lq78oUIYEQmVhwCkY7wf06Bb/nVLnbgTMGE3I/+Vyes1ZrgEY96Mdu99+TuCfU/lVk3O3BayNKpOCINxDmqkIuCJ3c8J2OY3iywYqgHLjeUy3s6q2MspOruCnTHuRsOX+iP2AuxG7MOn9tP+9mqv7XiArrbLIGL/mpwu305CbOPcdl3Z35nfT3qDHWB0lp7MoTknmysFc+44XBaoRDyA99CkXE07ZHzN8w6Uu/eg6oCfSXUk0eCzeTkVbrNiu1l7yKtYScHJzqXnIVkrh5q8oOm8F9qPfeT/hI/rTbu1ZihtbNxvDYxwVgUCKthlXKghCS9BMRaCQgrQjBD42nz6+xzFmaynW7uWKVk+TRxAqSriqv82Txu4aXGQFFP/0W550Lqb4syWkfx1Mu/u60i60M77Pz8P3wbWcfTcVq8QPl0AnpH2eo1dUvZcaVDhJwNpcl9ZU5FJ6saZQWPUGbAp/ZG5AIzocDXPnWmw2tmBok/s5bVPSm2OlgiC0IM12TqD8xFsc04Wh0vSmXccHCRr7OP4//JWT+883cU0WKqyWhhe7y67l6Sj+RkfxN99wqU8sYa8Mxjs4FYMeoJyr6//O2a9uc0/8i5EKpEhcpFDdb3BB6grlxVeb5w00ShFt1ndC6jWOitj5VPT7EslBUQgEwZE0630CFcWnKTi6gZ+2/JXMlAIUXSKQ11nCAteANre3fpsF2kprDQspvXCq/Q6KtJRZPGn3O/8GVgS0ldG2md79tctXsCJF4grYcrmaDfKwzjR4+X8F4OR0/ZeQl8NVoxOKLoE1j/mE4NKuHHNWrfMEbf1QBNXUcanaH0mpgbLiX/V26jHDlQ20yQZ8Nc25YkEQWoBm2g364xk1Gb8uYcjdPHDy+wM+wZ7Y8i5Sd2i6gLIiUHR6EBcXWd0deoMslF46T5ugaDyVQFt/vB6Irjn5DGA9Qk6qHpcH5xPSuxdylT+KoCgCHvxD3R2y0YBZ2gmPLv72NjTlU+j0KB3/Xyw+Ud1w6eSHc8+++E8egMsvOn7RAZRi3H6I8u6jCHm6L4oAL2Sdu+A+KpagUcF1VmXTZmFu1xmvqECkXm72IgJgO8uVfbk4PfQkAQ8F49y5m30bxlTyDtc6TyBR4DF6FO6dvJCFD0A9NJjygymUNOf5gCoVgFTR4GKCINxbmmk4yExFmyB8B7/N79xcwVrI1bMbyNz9Y71zAiUUJn1O4ain6D5rAm3b1rtEtKGtHF2NPvgVOk3/L78r1mI8egBT6P21lrBwNel1TpmnEPzQAno9VnmJ6OEV1IlPy93CT4e7EfLY50Q407RLRPOyKL7SGa/RE+jgqaCNpZiyC6e4uHgTxSX2Ra6d2Iz2w6uoR49CM8SNtpZizPpzGL8uqLuu83u5+FUIwePn0n0qWL9dQfrHZwEo3bgKnfM42v9lBj7OViwXjnNx8aa69wiU68g/5IL/q39D4VpK6f82c+HfZ/lNouIqzFwT95cLgsMR8ZKtgVM3glY9i2TtK2Tta/x9AtOmTaucQE7OtegkbF1/RPLF67QxmZnx7Awxi6ggOABxbOfA2ri5IfXyQhHdH6Uil9LbmnICwEyb1OW0vTqQimnnxdxBguBAxLQRDssNr5ffJjAUKLlC8X/XknvxV6yuaANt126o/lHMHSQIjkEUAYdVTP78F8m/280QBKFFE0VAuCURHiMIjq1ZTgzHxMQQHx/fHO0RBEEQ7iBxYlgQBKEVE0VAEAShFRNF4F7lN5lef/sAP9XdboggCPcyUQR+M50IeC6BHg+q73ZDmoXf4//gzcGuDS9Yh5zg2UdYsFfHgr06/pawnymL36FP1+ZNYcN9EuP36FiwcRnBVTORSCIZ9IWOaZPua95tCYKDEUVAuDlZKDHPjaWXd80cT7IOkYyf/BjqBmfHqyVnI5uej2HdPz7hnC2SIUs3MKCrvOHXNZVPFBEP+zT/egXBgTngJaI3j5esAFDeT8BjU/APVuNEISXaBLK2b6iek8fpgQ/o08+A/pQnvr3DkMtKMKUsJfPbIzV3yTZHlGYjtPWKQv1oLN5BaiQUYr54AP3Of1JgrFpChix4AqGRw3HzhHLtFjLjN3C1chNOXSYTMuAPtPPxxKltOeZLB8jetZq83JKajXR5hftjlFyM1+IePRyVtxPXio+gW/cWecYL/JjSjQlzFuMq8yDINpfFjxRyYP1a9E25ZdhWjFF7FIPtKNmHU7Gu2kH/8SM5Mm8jZQAyDaFTFxId3RdvBRjPJ7L/o/kcy6w9HaoPwbFvEf1YJP4+cqx5WrTbFpGwMdk+2bbNTPYxPcGPjUG1ZwXG+m1Qj2HoC+PRdNWgUoIpJ5Uz/1nE7j0ZWJHjP3UHf4m4jE7RnWBS2b/9MmFjR6LK20r8rFfQFgHIUT44h6HPjEQT5ANFWrQ7FrEzLqlegJIMV28PlDYTuYUl9VsiCC2Kg/UEKuMlHwqiZN9CTq6YQvr2RCxK/8pZRNX4PTGfDso0suImcuyLz7nqO46wkY/iVGstbVUReFg+J33pcFI3HcAp4gUCO9Rswx6leZjzn00kdeVczv2YRvWuvTJK89DCF9BftlCydzKHFg7m0MLhTSoAKKPoNOEVPCv2cj5uIsdWL0R/UYa89ohMWzW+vZXkbXuJk18mYA4aR8d+NcNPUqWM0uOfkBn3AqmrXudifjdCnpqOqv7krdJuBA7w58pXk0hZPI70nQcotQJYyE3ZztodWtqp/fDrICNty1q2nyhs/Puoz6bl3FE9zt0iCZQByPF/ZhUx0c6cXBLDR88/R7Ixkj8vfAuNsupFcvwnbSD2KTWG/8xk9cRhfPbhV5hUapyrV2zG+MNGdEEj6XOjXobKB7Qb2bkgho8mxhC/rRjN7FVEh9UsK1XkcXT+XFJKo4j6o5ndM+dyWjaSiAftvQtp73mMf20w7J7PZxMHsvr9XUiHLSNmVL0ptiW9mLwsjrhFj9OpKT0mQbgLHKsn0FC8pFc0voEl5P/7EwpyLYCBrO8j8Bw5GE/lN+RWHs5VWA5z6dBp+5G/bi/G4kdx7eABlwpp1ijNW5D3fgIPkjgbvwGjBcBAwYHT9ZYqoWDfJ1zJsQAbMFx4HE0HDWB/76VH/0ntjLUr3+/Cr+dw2nmD8VLt9Vgo+O4DruTai1SpNsn+sKwTMa+9xP35X7Nl+xkeLYun4MH5vP+nvSxZsr1pvYFqZkwFeaD0oZ0MsEVyX7SG/IRh7D+YAWSQ8uHHdPviZe7r74Z2TzHIBhM5TI3hP8PYuaMy4jJHy+7D9VZdtJXDB2YQMzyK/UvrhSqcXMHOkzU/GhNWc/KxDYT0UcNp+6dkvZiM9nwS1gvF9K5IRpeVhPLiEiLb+wIQOnYMzt/PJH5jor33kfM+uxOHMGXgYJRfrWj23wFBuBMcqwg0FC/p5Y9zxUUMhpoj8gqDlrK2w3HxhOr/xaYCLFVzYFdYqLBCW1nVEWMzRmnelAxXfzUYEii+VeehooCygqoFLFjLSkApoy326f/b+j7K7wY9gWegGqfqo/9CSuv3BCq0FF+6wYYsepL++Srx+SX4PR4FJafYvnEWSd4elP+aGeRqv1ahRuVuJv9CrfziglMYCuQEB6qBDAjQ4K24jO5kQ7GhZnTbt1K2eAyhn39S9yn3SPpNm0NkRDgq95qj/3yXmn9bLWWVf5uxVpjt/7aB1MkdJO50CJKjjFjF34bU22yOL0oJmKrel+0IHz41lA8b/CAE4e5zrCJwhzRflOavZbm+8FQN8LUNQ/3kC6guf07myu2Yii3g8me6vRR7/WoqLFy7YQWzUJhvLw6mcz/yY6k9raYk/1cMByFH6eMDpqP8YgGakivUGJkbOZwVT8SfEqnJYHNDM20Zg7omk/DqTM5k6rFKwhmwKp4eNOUEtRnDmmGsXq9teFFBuEc41jmBhuIlrxgoaxuE0rdmz9PWX4NzhYGr151JvLXfNkrTQolBD/69cbvdnaRLGK5uBRT8GG8vAADeQchv8xsvObGd3eeaIftZoqFzPzVlp5LJtgCleoxFcrw71hpX9+yGv6cZY3blkX+OlvxSXwJ7NOZyWy3pO1JRDRmBf9V4vESDWuNG/nfLSc/U24dyZBp8/JpQAGznuHQRVD0ja52HuDlXDz/8vF2bvcYJQnNzrCLQULzklb3k/+yK96DJePr5I+/wKCGP3A+6vRQ0Opf3TkRpgjltC4X8gZCYcaj8/HHy7IQqYjI+HRp+LQBlesxlnrTr2Mn+JTuHEfBI9G0XgV9F4oZKcx+B/ccTtXAVA/wzOPjvrfYrg2zJHP1ej/fweQzoH45KHUW/GVMJNiVx9GDll2JJJHmHHv+xyxg6LBJvfw3evccw4OkRKG+wubL96zgjiyS46ljApifPYEbV4xH7SXGJmuBJUwi90YtvKo8zW7ZS1nsOT04dQ6Bagyosiu6x7xATG1nv/Xbi8UVxxC2bTC9xYlho4RxsOKiheEk9P29+B+nQiYQ8+2ecKgopubCB09u/pvGxvHcmShNTEufXgvrRWDo9M8F+iWj2AfRnG9lM6xF0W/9L56FL6Hu/BWuZAePhRIoDoxv9TptNwBie/NcYrKY88k/tZdec9zh22lz5pBnDp8+RIHuL6NfiiVKASZvEzvlz0VafaTVjWDOO9VffIvqpVUx5yX6JqG7bIg7eaHuWJA7v0dIvtqp3kUf6yvkEzX2dKVtexGq6jGH/VtLOawhuwtuwpizgs7eLGTphDrGjfJBa8jBmpXJyc/1zFU4oFUBhAYYmrF8Q7gYxi6ggNLfAsSz/1+PkfjCRt/eK+wSEls2xhoMEoQVw7dULtf5rNvwgCoDQ8jnYcJAg3H0lO15j5I673QpBaBzRExAEQWjFRBEQBEFoxUQREARBaMVEERAEQWjFRBEQBEFoxUQRuFeJeElBEJqBKAK/GREvCYAkij9v0VVHTFb/2bODBwKauZGekxifuJ9BPerNCSQJZ8AnOhbs+Zao6qwBOZp5J1iwbNINp54QhNZC3Ccg3JwslJi/9Ob8lvjq6Q9kHSIZO8yTpM+alidg3PUKm7afq3mgwowxr1lb2zCJhj7Do9j/bmUegCAIjlgERLxki4uXBKyF5zCcPnqTZ30IjH2LoSOi8PYEqyGVtDUL2P1D5ZTNsvvoN/t1InprUHm6QZEW3Z73SFiTaJ/DP2A2Uz6fUT1raPCyTB4AsB1l55gYUooAzBjTUrFGjiHUPZH0ouvbEPz0W0T/sS/e/vZ5gfJTv2Tnh++TXQTIxhCbMAfntMuoeqgx7V7N6YAJDOgJuriJrN+YAYBUPYboGdPp3VONsy0PQ/JaEpatwFAvcUbm7oGHMxTmFtIMc7MKwm1zsCJQGS/5B8hLXMh5XS543o9vsD8STlNRFS8p/YbzcfMpkfYicMQLhI0sIO3Lb6onkbPHS75O+tLT0PEFuo99gcBTE/npkn0b9njJRM5+Np8SiyvywAgUVU2ojJf8iU4EPPcBnukvcPJAQ2EoN1AZL6m8tJbzcUmUlHvQrttge7xkVRFoq8a39yl0217iJ0U0ITHj6NjvAOnJ9u1VxUte0l/EXK7ELXIWnZ6aTvmKdyrTyipJuxE4wITuq0lor1iQB0cgqR0vqfDnlRcfw89iIOmDXxkveR053k9/TuxjRRxc+QwntUWo+s9g+NxVlBqGsT/TDBJfFJYf2ff+exhyLkPQCAbNXsaTvwzjs/VayHmf1X963z4ctH4ChpcHsvukuWYTVTN5/rSNo5J5RAzWkL6x/nfijLNLEae+mIvurJ4yl3AiXnyL2Ll5fDRvnX3GU9wgYybr/zeZ8TOmoF4+kc/SXmf8Y2Pw37IAg3IEw9+bh3fKe2x6PhmjczgR098idraelW9uq1wHgIzIl+KY2+80K8e/xvbm/DgFoYkcqwiIeMkWGy/pHRvPgtp5Ngdf4e/zNmKVRdF/hBrdpxPZ/4N9fMi4ZRHJA74l4pFw9mcehdJE9r+fWPPanBUkHxxLbM9IpOu1jR/aqdCTvj2Vh8aOwX/Le/We1HPm41dq/axlb/xI+k3vS6BsHfY+yWWyUlIxFPfHaPHlwuGjGJSpmJ7SoJJA2bAphJZu5LOl6zDY7OvYHRdJ9zdHolFuI13kTwotkGMVAREv2WLjJa87J1BcufP2C6e9uxv+Lx9hwct1X1Nm8K38l5rgp+cxaEgk3j5uSKuO7NNkOEOTCrDph3WkP7OE+/uupm5JlaN6eB5D/28IgWofnKs+I0tSrf8kZqxlZrCYsWLGWgrIwCqRI5XI8Q5RIw2azJQ9k+tu1JaB0r12Qy18/+ZIvm9CuwXht+JYReAOEfGSTR+/uOU5AZueQ7PqDeHUohz2Dk+OdSdtyTjWHcygzCIncOYBxndscjPsWQN7i/jLiCFkX631uHo6Ma+NxLpxLqs3J2E0mZE+vIq5rzWUPlZW5ydrygKWzF0nTjwL9wzHukRUxEvWaKnxkvXlZvDzLaMj5Xh364w0YyP7fsigzALghk+A2/VHMDYAZ6QN7Lfzt3+JoccYwnxrHpN26Y6/JZnk/yRiNNmLkaqjuglHSWbys/TQsS/BioaXlrl64OfngatIHhPuMscqAiJeskZLipe8FUsSRxK0ldGRUXgHaPDvN4J+M+OI6i8HzBgv6uF3kQT7yAE5qj+9zoCeN9jTl2ZTaHIjsH8kSoUcqewm1cCwjcNpajQ93KofsmZrMcrC6dLTBwBpp0kMGhbepLdiTFzNGQYz/I3ZaLpqUIVEohk2mz+/PAlVvZ192LMriFuzmMdvpzcjCM3IwYaDRLxktZYUL3lLZgxxE1lnfotBTy1jyktuUKTHkJnE4Wz7Ebnxq/ns6riEoZ8eYWhpEabMrRz+QU90/Q6fJYn9nyby5MRVzBolr3eJaG15aBN2YXxwDNU3XGcuJyFOw/BXv2MuZky5qRzekUTgmCa8lYJtJLzsTPTUyQxfOgOlpBhTTjrndn9CWZ1zKDJcnWVgKaBAXBkk3GUiXlIQ7jRJKNPWLOX+Y68x9aPj4j4B4a5qaYMDguD42vcmTHmcr7eIAiDcfQ42HCQI94DsL5kx+su73QpBAERPQBAEoVUTRUAQBKEVE0VAEAShFRNFQBAEoRUTRUAQBKEVE0XgXtWa4iXDFvJiYjz9fO52QwTB8Ygi8JsR8ZJ2clQPLyT20yP8bY+OvyUcYdrSVTzQ263hlzaW+yTG79GxYOMygqtm55BEMugLHdMm3dd82xEEBySKgHBzslBinhtLL++aeY9kHSIZP/kx1I2c+Ezaex6xr41Eevg91k+P4bOFb3PwFLj5uDd/e32iiHhYdBcEoSkc8GYxES/ZcuIl5Xj/PgpVzkY2rdlIvg3gKIaUbXWW6b7oBENNM1nyj8rgGJ/p/OWLMWT/dSC7T5url/MdvIwpIwbjryzGsP9jEpauwVBa+bTNTPYxPcGPjUG1ZwXXTQqrHsPQF8bbJ3ZTgiknlTP/WcTuPRlYkeM/dQd/ibiMTtGdYFLZv/0yYWNHosrbSvysV9AW2dugfHAOQ58ZiSbIB4q0aHcsYmdcUr1MAxmu3h4obSZyC0vqt0QQWhQH6wlUxks+FETJvoWcXDGF9O2JWJT+lQmDlfGSyjSy4iZy7IvPueo7jrCRj+JUay32eMnPSV86nNRNB3CKeIHADjXbsMdLHub8ZxNJXTmXcz+m1dz+XxkveWjhC+gvWyjZO5lDCwdzaOHwJhWAqnhJz4q9nI+byLHVC9FflNnjJasbqsa3t5K8bS9x8ssEzEHj6NivZvipKl4yM+4FUle9zsX8boQ8NR1V/QlNpd0IHODPla8mkbJ4HOk7D1BaO15yh5Z2aj/8OshI29KUeEkzZb8Ug084wUG/cvhHFk7vh8pInjeMla9+jLHn6zw5JapO4Ivxh43ogkbSp+sNZg9V+YB2IzsXxPDRxBjitxWjmb2K6LCaZaWKPI7On0tKaRRRfzSze+ZcTstGEvFg5cyivecx/rXBsHs+n00cyOr3dyEdtoyYUZq625L0YvKyOOIWPU4nMVW00MI5VhGojpdcTFbacUqNBkovfM1Pe5Pss4RWxUt++wkFuQbMOd+Q9f0R6DgYT2XNamrHS9p0ezEWe9rjJYH68ZLlxvOY0jeQp2veI76qeMms+A0Ycw2UF5ym4MAH/JxTe6mqeEk9pdoNGC6AS4eaHVLp0X+iT/kRU66e8oLTXPl+FybnMNp5199aVbxkIRXWEkq1SZhM2OMl33ifl3pq2bL9DEcSKuMlX2v8cJAx4T32azszdPURZn2ynpiZs+kedhtDNrZizqxdRHqmlvy0NeyMP4rykZE15wAAirZy+IA7fYZHXd/FPbmCnWvWoT2ZgTEnA13Cak7m+BLYp6ZoWi8moz2fxIULxZRpk9FlJZJ1EZTtfQEfQseOwfn7RcRvTMSQoyX/4PvsTrxM4MDBKOtvTxDuEY41HCTiJVtevKQpif2zHuRY1yg6940ksPdIhn40gfvWjGPdxoxGrgSw6bmUVRP6YMrSU6ZQo3KHmm6YGd32rZQtHkPo55/Ufb17JP2mzSEyIhyVe83Rf75Lzb+tlrLKv81YK+zDUFYbSJ3cQeJOhyA5yohV/G1Ivbbl+KKUgKnqM7Ed4cOnhvJh49+dINw1jlUE7hARL9nUSfDNmDITOZaZyLH1co5M2sGU0eMJ3vIKuhsVk18zhJK5kcNZ8UT8KZHs6gfd0ExbxqCuySS8OpMzmXqsknAGrIqnBw3FR9Z9H4Y1w1i9XvsrGigILYtjDQeJeMkaLTZe0owx7zJWhTvOlTt7qwWQyWuOSDx8q5+rJlHTIaTmE1aGqHEu1WO8LjBGS/qOVFRDRuBftQ6JBrXGjfzvlpOeqbfn/8o0+Pg1oQDYznHpIqh6RuLciMVdPfzw83bldr8+QbhTHKsIiHjJGi0kXlI5ahV/mTePPg9H4d/pPgL/OJvhYyKxnkwm2wJgxnBOi7TbEDQ+gExD9yeH4H1dEXAjdMJCQrtqUPWexNCY+zB9vxXdDepS2f51nJFFElx1LGDTk2cwo+rxiP2kuERN8KQphDZpID+PM1u2UtZ7Dk9OHUOgWoMqLIruse8QExtZr62deHxRHHHLJtNLnBgWWjgHGw4S8ZLVWki8ZNmZFAy/H8WAGeNRusvBpMeQ8h7rV6yrPgVj/GoRe3u+w/DPTzA0T8uZXbvI7h9Vd0WWDNL2OfPQoh2Vl4i+zabVSfaj+vosSRzeo6VfbNVJ8jzSV84naO7rTNnyIlbTZQz7t5J2XkNwE96LNWUBn71dzNAJc4gd5YPUkocxK5WTm+ufg3JCqQAKCzA0Yf2CcDeIOEPkswAAIABJREFUeElBaG6BY1n+r8fJ/WAib+8V9wkILZtjDQcJQgvg2qsXav3XbPhBFACh5XOw4SBBuPtKdrzGyB13uxWC0DiiJyAIgtCKiSIgCILQiokiIAiC0IqJIiAIgtCKiSIgCILQiokicK9qTfGSgiD8ZsQlor+ZTgQ89wGe6S9w8sBNZjW9h/g9/g+mlbzNG4lNuPa960Km/Ws8181cXansu+dYsiixWdp3S5JwBqzaQVSwlv3Th5GUaQbkaOYdIdb3I5bOXFMvFEYQWg9RBISbk4US85fenN8SXz39gaxDJGOHeZL02faG08WyPmHT81uRtgWkkQx6dw7OO54j4dvLAFgL7/BsnBINfYZHsf/dxBtPNyEIrZADFgERL9li4iUtevIzK3tBMjVlNpBe1mI4XWvnHzCdv3w6AcPrD7IzpSpK0o3QNw4Qo3iPpa+uo6zHQl58ty9Z2y7T/pG+qBRmjAeXE//+OvKrP04fAmPfYuiIKLw9wWpIJW3NAnb/ULUtM8a0VKyRYwh1TyT9utlHfQh++i2i/9gXb3/7vED5qV+y88P3yS4CZGOITZiDc9plVD3UmHav5nTABAb0BF3cRNZXZiNI1WOInjGd3j3VONvyMCSvJWHZCgz1uhoydw88nKEwt5DmmJtVEG6Xg50TEPGSLSteshFytnHilBuhf6qVBqYcQs++oN2zlbKqx2ThhP3uR+Kf7smSifPJ7jqPJ5+tmr1TjvfTnxM7wo3TK59h5cQYNm0rJnTuKgbUjpr8aRtHL/YlYnC9OEgAnHF2KeLUF3NZN3kgK19+G53vBGLnjq81dbQbZCxi/ZpUVCOmoD44lc/W6Ql8bIx92mr3EQx/bx7BeZ+w6fmBfDTnbXQdphA7e0S96adlRL4UR9yauQzyQBDuKscqAiJessXFSzZMT/qeZKQRIwlW2B9xfngwwZYkjibXmt/blkf6li/sR/4FiezbnoHqkREESwBZFP1HqNF9PpP9PyTb4yO3LCJZq6bHI+E166jQk749Fe9BY2qyBmq148zHr3DouyQMei3GzG3sjU9F2q0vgdVF8zJZKakYDqdjtOi5cPgohtRUTJ5qVBJQDZtCaOlGEpauQ5elxXh6G7vjdkHESDQif1JooRxrOEjES7a8eMlGKNu/Fe2Ut7gv0g3td+6EPRyJ9eBz6EprLWTTc/knc/WPJoMeq7saDyXo3MJp7+6G/8tHWPByvXUbfIGa3wfTD+tIf2YJ9/ddzek6S8pRPTyPof83hEC1D85Vn5ElqU6YvbXMDBYzVsxYSwEZWCVypBI53iFqpEGTmbJnct1G2DJQulPz+4WF798cyfdN/6gEodk5VhG4Q0S8ZDMOBwGYEjlx+HViokfinCGjR/hl0r9IrnfyVo5UUvfnOjGUNj2HZg1k90kz15HU6g1Ykji8t4i/jBhC9tVay6inE/PaSKwb57J6cxJGkxnpw6uY+1pD6WNldX6ypixgydx14sSzcM9wrOEgES9Zo8XGS96IGe2uvZT1Hkz/EaMINCRy4lS9nblETQeNW/WPqhA1zkV6Ck1AbgY/l/oS2ENNY+Rv/xJDjzGE+dY8Ju3SHX9LMsn/ScRosm9b1VHdhKMkM/lZeujYt3pY61Zkrh74+XngKpLHhLvMsYqAiJes0ULiJRvt5EZO5kUy4Ilw8g9sxVB/uEniRuiEeYR21eDdbzpDR4ST/8M2sm2AJYkjCVr8xy5j6LAovAM0+PcbQb+ZcUT1v8GRvGEbh9PUaHrUFBVrthajLJwuPX0AkHaaxKBh4de/9haMias5w2CGvzEbTVcNqpBINMNm8+eXJ6Gqt7MPe3YFcWsW83jHJm1CEJqdgw0HiXjJai0kXrLRbEc5+YOWAbFmTuzOuP55SwZp+9x5aPEO/BXFGH5YwKaPq4aMzBjiJrLO/BaDnlrGlJfcoEiPITOJw9k3GB4iD23CLowPjqH6huvM5STEaRj+6nfMxYwpN5XDO5IIHNOE91CwjYSXnYmeOpnhS2eglBRjyknn3O5PKKtT1GS4OsvAUkBBM4+sCUJTiXhJoYWQEzz7ALFBH/NR/Tt4eyzkxXe7kxwbQ0rB3WpfM5KEMm3NUu4/9hpTPzou7hMQ7ioH6wkI9yKpUo0ydDzRD8vR/mub40/h0L43YcrjfL1FFADh7hNFQLjL1PRetJ+hXYsxfLeI3bvz7naDfnvZXzJj9Jd3uxWCAIjhIEEQhFatpV4rIgiCINwBoggIgiC0YqIICIIgtGKiCAiCILRioggIgiC0Yg55iWibiAmEz+pLm4z1nHrrEM044WWzcJn6Nl0G2qcsuFZyhbKzp8jbuJ2C86UNvPLe5TL1bTr7bif9Vt9H50ksHXGKV99Lbt7r5yXhRK3ewYAQwGamrECPIWUrez9dQbYj3HwmCL+CA/YEpLj+vjPWHw9RGtwbN7eGX3FXGA6R9eoSzq34hiJbN9RvzMC/k0PW5Aa4cv+4aTwW7kr17EoKNY88O4lH/Jp3S2UHFrB6+jNsWrMLU+gMxi97h2Axz7/QyjneXsepI6rwckwrv8McNAtVbwWF+yqPsJ168btPxuN08AAVYX1xVTlh06eQ88/NFFWG6Moen0vYI1fI13rh3tMLSUUxxV//h4sJOureUCHD1dsDpc1EbuFNAmUUHvi5gamwkJL6h7a2Isy6bMrOZ3P1WBYsnofPE73IeyfVfqTs5IX70+No/4cQnBVWLLrjGD7dRMH52pMUK3AZ9SSBf+qGwlNKRUEOxYnxlW2V4vHKOwRc/ZT05afsi3tFoVn+EKVvvEmOri8hax9Dkl6Kc6gX5fsSKWr/R/zC4Jcvl3MhIdf+GtdAPCc8iX9EADKZFcv54/z8ySYKL9rbIR0+i/A/XeHSYQVeD3VGLi+l5Lv1ZK09hQ1wm/kOHR+smlYzlh6b7VNZW79dQfrHZ4ESju9PY+wzb/GmsxMeHp2Yt9BC7ncbWJvb2C/dhz5LDhBVsZUzikhCg9yRmtI5snwmSYdrbj6z/nIZQ2YyZCajSyti/BcvEz3sEz7bWBlB6TOYqJfm0KevBqUtD8Phtez8cIU9XrKK8j76PP86/SPD8VaASZ/MkU/msr/WdpC44uGtBFMhhdd98YLQsjheT6BLL9ycdBSfzsWUXoyyX5d6szk7oezlxpVFr3Py2SXkFPYi+KVHkdWa5bGNfzdcDes5/ewrpC9JQ/7EJNQR9eYHlvRi8rI44hY9TqebTAfsMXg+cXFx/DWygRlEbbkUpeci6dIVRWXOpWLscwT/AYz/WsKpVz/lclFn1C8/iVuteElF7Aw6j/LjavynZL70d859cgSruxeNn53YDTI3cX5DFrJHB6NIWcXZzQZc/xSJQgLgheesGXQIzOLnd5dw6uV/8fPPIQS9OgqXWnmcbXy64W5J5Nzk2aR/cBzpo6Px72x/rnjZK6SNfpGz3xZz7cR6To5+kbTRL1YWADtLdjL//U8ihR5q/Dr4U568gQ17ztC0rDY5yr594T8xLB11P59tg/tfX0Yfn5ssnvc9Z8/L8e/Tt/JISMMDry+jv2cyO2cO5KNXl/NzyAxi546nprOgod/CzxnS8zKHl4zjo2dj2BSvRdHet+66Oz7O4jVxrHg2rEnvQBDuBocrAorfd0NyNp2Scig9kcW18N60qxvwSukPiRTlAbYrFG07iDmoH561p6IvOUXutmyuAdfOfUNuhgL3h7vdXjRAI5UXloKrmz0BTNIFrz/4UbZ7M4aUXCwXz5K/Zi8lbn3x6lvZeXPqhc8f/Sj96lOyvz1LmeEKZcf2k/NFahMCTQowndBReiwLc3kupmPZlJ7IodzdE1lboPND+IblYvjgKwozcrHk6Cj8LJFil15496pZy7WyU1yO19njOE8c4RejGwpNY8fhXOk14R8snhjE4S27OZP8X76RPcH8d1/iketiMBtw8kv2Hc4DzOQnfMJpS196PHyzjAE9JqMZqXugfScfMoKe3YpJ+3QRZzK1GE+uY9cXSdB3JKFVhaTHeCJ7FJGyZCYpB49izMkge9cidm+7wayngnCPcKzhIEkg7n3cKP3mnH1I5XQGv0hGo+oupTilatdYjuXnKzWvybmCBU/k7aWgsy9zzWjAUj23tBWLoZi23b2RS6iZEth2hA+fGsqHt2hO4VezGPpVI9teOQ91GwBnT2Ru5ZRdrNVOo55SoxPK9l5ALrT3R6EoxnT6yg1W1gRmoNxCBRaulQEyC9ekTrSVgKRjAHKnYAJXfkRgvZcVq6RQVW5+Kaa8eh5tKzYLtHV2onFK0O5Ywuz8QiydJzH8vgKOb3ybI7s9cG3SNMtmTD9n10pw1JOXByEBGuBywy8P6IzKdo4j52qmnraePYdR0hffADnkmXHWdEdZmsGFzBtNT13LuXVM/fO6pjReEO4axyoCwb1Q+Tjh/H9v0/v/Kh+TgDWiI6TUDD+0qT1eIuH6/pCk3vDNHUh/cvJSQMkVLBawnyH9DQIKr+v31U1RuGHCZEkqFyavpbjxgQtNVh1XWXicvSkG+5VBhYVNHA4Cab3fZiduFQ2pRqmSYy3Kc/xZSwXhFhxqOMi5XzjyvP1ceHURZ+ba/5z9SoekZy9cqnfkTsiCah3XBqtxpgDzzzU73TZefjhXj727oQhwo+JyPub6wSB+fvh5u3JTCg/8Ovjh0VDcoMQP955+2M6mU1oOlBVgKVbgHORVs4xKjUJVqxfzs4GyUjdcw7xuuEoAWzm0cap1RK5SIW3CN267kIPZORCX4Ma/5paNkTTQO8g/wvbv9bde5qbkOAeF14TEKMLx8TdjzNHeeHH/R+jSyYzhWGUwTc45jJLOtA+pKRzSLp1R2fRczrEf+Zdp0zEpwunYqaHcYRkefn54uN9uNqgg3DkOVAS8aNfHD9vp4xTrcim7aP9zNTmTMlU3PDrXLOn8UAz+EX7IgrrhP7YfTroUjLX3PU6d8XvmARQBXigeHYV/WClFP5yqe3WQpBeTl8YRt7CBE8NrPuaF399gZyBxRx4ciKLfA/jPeQ4/n2zy4o/bh7FsZ7lyMBfnQaPx7+eHLKAL3n+JRllygiuplcWq/DiXv8tFMeJZAgcGI/Pxwjm8L/6P96rsuFgpy8qhbZfeuHsBTl54/Lknzk3p1Zzbx+UMN/xemIB3v0Bk/n64RAzAf9Zo3Jt46a3l8i+gDsc9SEEbJ+lv07vSjGXomCi8A+4jdNoMQiWpnPyh5ouVtvPFv2skwX+aTcyilwnM28reHZVF4mIiJ8660XuqPcJSFTaeIU9HQdpWzlRd+HNyHckn3en3yjL6RYSj8g/H/+HZRA2pF0PpMYi5a+KIeykSUQaEls5xhoP8e+IRDCXbL9R9XJ+BqeBR2v0+EM4DlFO8LwPF07MI85FSfu4Qug+/qRP/d+1iKsaySDq9G4ukNJfizWvIOdzMN3L5P0DI4geqbxbTv7WdgnM1vZHS9WvQOY0mYPpc/J3BojtB9pL/UFxrjKR0/SrOlY4iMOZ5wiZJqSjIpThxU/WwjmVXPJfCJhD0wTvYCvQU7z3F1X7dmtDIKxQsXQ4TRuL7/F8JdAVbQS4lx/dR1MSPw/rddnK7jyZg8TsEOdW+RLS5mDEd3Er+7xcyZZIaqyGZg/94hWN5VBcc5wcXMqW/mbIiPYb/LWf9pyvQVY0F2TI49P9mopg9h6HLxtsvEU1dzaYP19UaLtKSsmAitudfp/9r8QxVgCknmSMf1xv/d1WiBArzC0VojNDita48gcr7BNqueYWsAzcec5c9PpewyAwy5+6olwsrtFyV9wnkPsfS95PudmNwHfwP/jNZzroZs4i/dLdbIwi35kDDQYLQEsjo1VND4Q9r2S4KgHAPcJzhIEFoESwkLxlN8t1uhiA0UusaDhIEQRDqEMNBgiAIrZgoAoIgCK2YKAKCIAitmCgCgiAIrZgoAkLL13kUoetn4X3zGTJqSLoQuOp9Og4UF77dlGwwMV9l8uSfGpr+AkBO6MJM5s4b/Js3S7g7HPJ/ioiXbHluGS8p8cJ9Qr0AndWbKNDdziR6RZSknMD8czM0+kYkfvgvmYt78t/J/O/NZnCVMWj+Yjw/ncWXd+VeATe8R7zF8DFR+PvIsRpSSft8Abu/u8k8Sg0wnkjktK0RM7HeFjnBsw8Q67ecpXPXUfYbbUW4OQfsCYh4yXuNYsxzBD/iwi9rl3PmjfUUWLoR9OqTKJ0bfu11bLkUrllLXsZvMAtrQ4IHMWlCJH7VEwbJ8OgTw7THe93ROYSkEfOInR6Fde98Ppv+DDsPu9P75VVEhTXmyL8+M4YtM/n6q6PN3k6hZXC8vY6Il7y34iUlXfB6yI/yfUvJ2acDwLDKH7cPo/GJ2IRpX837lT8SS5fBfVG4llL2v2+4+PF+SqsOHVUD0KwajbJynqDij2dx4du6hUAaMQz1mP64BbjBL7kUf7uZixvP1umZSCOGoR7dH2WAG21Lr1CS9g3ZKw9RRjABH87Cx79ywaA36D0WoJyiZZXTkOiPcKBwAi8tehTcPZA/t5hepsPE//t0M84h1FCUphuax0ai0q1mfdw28m1g0C6iQ8R6+gyNJOl0zbQazprJPDl2CpogOWVnt7J78QLS9ZVZCZJwolbvYECI/cey755jyaLEup+negzRM6bTu6caZ1sehuS1JCxbgaHW3NzSkDFET51M9x4anMnDmLGLvcsWcCZHjmbeEWL/WHWUtpC5excCYNrxzHXTf8jcPfBwhsJcMR9Tc3O8noCIl7y34iV9AnBRlVN6NrtmhXlZXP1FgTyk1pTfTsF4P1BO7uK/c3rRN1jCRhPyf7W+W+N+tGNfJG3sCvKvXB9+0CZ8NJrp/aj4YT2ZL71J5scptBn4LCFDak40tOkzmi4vPYTkxFdoX36T03/fjNHmZZ9+26YjZ8aLpI1dhOFiOaVfvkna6BdJGz27Zh4qWyFndqzlyxMygtr7oXbX8vX6eI5cau7d1i2iNCXdCQqRYzqbQX51AFIqF7PMKDW1ptpGTvCQaPLixrFyykyOmIcw/P/Nwbvql8eWQdKzwSyM7sqmAzcI0XEfwfD35hGc9wmbnh/IR3PeRtdhCrGzR1DdgfMcQ8y779CdXSTMGsjK52ay97QclaccMKNd1JOF0V1ZtyMPa8oClkQHszA6+AbzP8mIfCmOuDVzGeTRnJ+jAA5YBES85D0WL9lORVus2K7WbvVVrCXg5OZS85CtlMLNX1F0/gqWjP3od+pw6t+fdo0KMFOgGvEA0kObuZhwyv5ZpXzDpaRiXAf0rOwOK/B47AEk6V+R9UUqpTlXsJw/Rf7KHZgaG6gTOIi5787nUdOX/DflDF9v0dL7+fd5c0xo8w8H3SxKU+KGXAllpuI6i5f9UgxK3zpTiRv3vEfSgQyMWYns/3gjxqDB3NelcUNGqmFTCC3dSMLSdeiytBhPb2N33C6IGIlGWbXMeDRsI+HN99FmajHqkzkT9wqHTjaQzCbcUY41HCTiJZvursdLNlJFLqUXawqFVW/ApvBH5gY09BFI/HAJdELa5zl6RdV7zqDCSQJW1LgEgHnPudu/kODnI3zy5m4Ki2QM6g6y87tZOe9HPLzLm3kI41ZRmo1fR/6F9Jofs7Tk23xRBQKnG3qtHO8QNdKgyUzZM7nuU7YMlO6ASY5/Rw1c2IjuV1/vYOH7N0fy/a9djXBDjlUERLzkrbXEeMlfjFQgReJSq6jggtQVyouvNuOGyrm6/u+c/eomFaM5vmNbIYVFABbO/7iX3BKAEgrzm2Hd9dw0StNWjNkEzsq6PTHndm5gumw/iGmm32drygKWzF13y99Ux9rBOCaHGg4S8ZJ13RPxknk5XDU6oehS6zvxCcGlXTnmrFrnCdr6oQiq2aVI1f5ISg2U1R31uMm2c7maDfKwzjff/9n0XM0BeddbLFOlguv3wvWc37ud40WNaNttuUWUpi3dPv7fJbxmfF/S136eQJuBsdY6vDt2r1lliAZvyWWMtT7ymzOTn6WHjn0JvunvthnDBS3WWy5jZ7UC0lsPmMlcPfDz88D1DhyQtTYOVAREvOQ9GS9pO8uVfbk4PfQkAQ8F49y5G/6TB+BiTCXvcK1jTIkCj9GjcO/khSx8AOqhwZQfTKGkUT2UUozbD1HefRQhT/dFEeCFrHMX3EfFEjQquHqZwu2HsHUfRcjTvezLBHfBc0IUytq1y1aMOR+cu/dGoZLa38vdcNMozWK027diDJ7A0GdG4N81ktBp8+jto+XYzroTXKui5xDVPxxVyGAGTB2DSreVo2cbN15vTFzNGQYz/I3ZaLpqUIVEohk2mz+/PAlV5Xdr3LEOLYMZ+nrlMgH3oXliHv3qXKpqxmjQQ8gfCAvxQSqT37CnEvbsCuLWLObxjrf3cQk35zi9NREvec/GS5ZuXIXOeRzt/zIDH2crlgvHubh4E6badw6V68g/5IL/q39D4VpK6f82c+HfZ2nsPOjXTmxG++FV1KNHoRniRltLMWb9OYxfF9Qsc2wzZz+8inr0aDTD3GhbUnmJaJ1xslKMW7biNu0xunwyjDa1LxG9Y24RpQlYDy9i/Qpnho9ZwpQxUGbIIP3dmSSdNtdZh273XnymbmBagP0S0YSFK2quKGpIwTYSXnYmeupkhi+dgVJSjCknnXO7P6n5v1SwkfiXIfr5ymUoJj9zK3sP1i00ph3L2d9nIX/61xH+LLvRJaIyXJ1lYCmgoPA2PzLhplpXnoCIl3R8Tt0IWvUskrWvkLXvLtww9pu701GabnRffIRBV2ay9N3Ehhf/LUhCmbZmKfcfe42pHx0X9wk0M8fpCQitWhs3NyROTjj1649SkXubU04I1RQ+KJXOSAOe5L5ukB+Xcffa0r43YcrjfL1FFIDfgigCggNww+vltwkMBUquUPzfteRevNtturd5P7WBabEasBWTf+BdNu3QN/yi30r2l8wY/eXd276Da13DQYIgCEIdDnR1kCAIgtBUoggIgiC0YqIICIIgtGKiCAiCILRioggILZ+Il2xxlE/Es2Cvzv5n/TsE3qnpHEJmMyVxBwPUDS8KiCjNRnDI/ykiXrLlEfGSzUQxntiEhWiqdrqlxeRn7uLgx4s4ltmYiZSah2lLDAu3gPOoeGaNvmObvQERpflrOWBPQMRL3mtEvGTTZcfFsvLZYax+YxGnrdH8edESQt2beSP3ABGl+es53l5HxEuKeEnu4XjJHgt58d2+ZG27TPtH+qJSmDEeXE78++vIr7WSsoJ08rOKISsDQ0k4PT4aSeducs4cNANylA/OYegzI9EE+UCRFu2OReyMS6rJIPAZTNTsOfTpoame9+fIv55jf0pVb8IN/xFvMbTWEXb6ukXs3NPIO4c7zWPKP6M498JAks5XPaim39JveejnmXz0biJWGhFRqYzkgbkLiYzQ4Fx0lLREfa2dlojSbA6O1xMQ8ZIiXvJej5eUhRP2ux+Jf7onSybOJ7vrPJ58NvLGyyo0aAZGopSYsVUe60h7z2P8a4Nh93w+mziQ1e/vQjpsGTGjqkJn3NBMWUJ/92QSXhzI0mcnEv9lKqXUHD1L+79F7PRITPEzWT0xhvi9znSfvYpBjT3C1m3ltF5NWNR9NY/5PEq3bsWc+SHJnkHQYESlG5oZyxik0ZL08jBWvr0V5+jBtabIFlGazcHhioCIlxTxkte7x+IlbXmkb/nCfuRfkMi+7RmoHhlBcK3qrpl9wn5Sdse3xI7SUHb4Y5JPmgEfQseOwfn7RcRvTMSQoyX/4PvsTrxM4MDB2JMf3VH5yim7mIzuvBZTzlF0e94nJaVyGlLc0AyKwvnkx+zckkR+TgbadfM5qFfTfehNitF17yGD08l6VP2HVO9slQ8OJbBoL6fS7DvaBiMqFUO470E3dJsXcexkBsaT69j5Za3fbxGl2SwcazhIxEs2nYiXbHnxkjY9l3+q2XmYDHqs7mo8lKCrXFH2F7HsTAZl7/FEP6Rn99trMNoASWc6BMlRRqzib0PqrTfHF6UETDY92t3JPDRjGS8GpaI7k8HF1K2kHcio/EZ98fGXYzpzqmb4yKbl52wzyoBOOJPUqJOa+d/vIn/MEHoELyLpvJrQAeGYDi+vfA+NiKiUBaKSXUaXVXOituyCFqOtb6M/SjsRpXkrjlUERLzkrYl4yXskXlKOVFL35/rtK7ucjiGzGDLTsQbtIGZGOiv/sa1y52zGsGYYq9ff/AoZ445n+Cg1Ek3//gT1GUL0G+O5b/04VscdtW+vOWQlcjprCj2iwkkq7k+3rsVo19UNtrllRGUIYMN+oFKlotYPIkqzWTjUcJCIl6xLxEtWbfsei5eUqOlQazhNFaLGuUhPoelGCxej+3Irxgdn0L+rHGznuHQRVD0jaejiKqshmTNfvc/uBcPYtL0Y74jIynF0PXkGUP6uW+XwESDR0D5Qjunn83V7ARVlIHO+yQ4wg5PJWlT9RxL8YDSBRXs5UT080oiISoMWo8UXVWCtcxX+6uqT/yJKs3k4UBEQ8ZIiXvJm7rF4SYkboRPmEdpVg3e/6QwdEU7+D9vIvtk4lX4dx076cv/4kTiTx5ktWynrPYcnp44hUK1BFRZF99h3iImtGs/XEDppIf0ejkTlo0bVdSQ9erpRdlFbOfxTjHZ3ImU9pjL0iSi8A8LRjJ9H/2A96XvqHsmXncnA6B7JfYPvQ+WjxllZtxdh3LsLQ8BIho7ui+l/dd9DgxGVpUkcPVhM8MjJ+CsAxX30j4mqVdxElGZzuFd7MNcT8ZIiXvIW7ql4SUsGafvceWjxDvwVxRh+WMCmj5NvMRSRx8ltSUQtnEz/sK0kpSzgs7eLGTphDrGjfJBa8jBmpXJyc9WRThFWiYb7pq5ikI8bUksehsPL2bQysXob1oPzWb/yLYaOXcW0qVCWl0H60ufYm1Zvx5m5moT14cRMi+fF2Tf9SvOZAAAIjUlEQVS45DEnkVNZcxjUVc+hval1X9tgRGUx2uUz2Td3IbEbJ4BJj+5/yeR39a1ehYjS/PVaV56AiJd0fPd6vGSPhbz4bneSY2NIKWh4caE5tc4oTcfpCQitmoiXFG5bK4/SFEVAcAAiXlK4fa09SrN1DQcJgiAIdTjQ1UGCIAhCU0ldXFwaXqoRmms9Qsvh3SH4ls/nX9LdkXYIgvDbET0BQRCEVkx69Wrz3JrfXOsRWo6yslvPECO+c0G49zno1UEyFP1eQfPI/bi6yCBnLamfbqDcbwK9Jo9D0RaoOM9PK1/gZ3EttiAIrZhjFgHZH1AP7E353r+SesJARUW5fTqG3LUcf3steE2gx9SI37gRnQh47gM801/g5IG7eMmZIAjCLThmEVD6I2tbQKHuPOUtJchT+P/t3XtQlNcZx/HvLrDLZQWWyqUVkAiMghhISmlErMpMyYY2qSFORs10MtohQ1Vi1EhsR9Kpxjal1BQ1xERTqh0lpJYSkxpiK+Ko6OAVNDBVnICCXQQXNKIut+0fu9TbgoAvzQLP5z/2PZzDLDPvwzn78vyEEA5oZBUB/1SiU1+wHvcAurRiguDOcVC/JtHg9uRiQhMScPd0wdJazZXSTdSd7flr3gNd/HKCYyLx8Naj6mzhZs1uaovzuXETUEcwftE7fNvHNjxxC08lArRj2jWHc1X9+D9At1kkvbeZsBNpfLDRlsIUuoKFG+bSmpVM4YGmh80A45aw8MOXMa5OYM/xnv4lnkz61SFS3LJZv6o/Qdc+RGTsYkbUfS83FvH3NzZwTxx3X1GaQgiHNbKKQOMWKt7aAj7zmJKWiOn9VBoGmLminrCYSclxtO1dw4VzJlymLCH8uTfpNi3m0mVrs3+Nq4mW0repNTbS5RKK34+XE/GciZMffUFXdzV1mwzUPcpx0K39lPxuOyHZa0g6/iP2nAhj1qpX0JUsZWd/CgBAwydUVqXzgx/OYu9xW2Mw3TM8/l2oySnqVygImKjONnCup9Oh9gnifvlrJtR9Set94QN6QyZ5qRMoy3qRt0qlCggxXMgjovfQ4B2TgEvtTr4qr+BW6yWuH9yE8WoQfjERtjEtmEre5T9VFdw0GTE3HqbhyGlUgTGMUfDd7KzOpnBHE1GvZTFraRZT1QUU5hb38+YNYG376xw3+389zl1nGAhp38/Jsv404bfpbqero52uDh3j5r5KFHv411/24fiheUKI/hhZO4FH5o/Wx4WO+ot3HR010tbUhpNPME5Y+/1rJ6YyfmYiXt/S49TzDrYfRq2ml3iuwTDTXJBBSew/SE66xMFX11E/wPbNtw8WUfPKWp6M96RmnxcRM+LpPJI2qAg895krmRlrovw3m2m082TogKI0hRAOQ3YCA+Uzj/AXDDh/uZ7KbANH1xg4WnB48Lm0ffGaTPA4AD+CJgUN/PtvFFNZbiYkcTauAU8zZfIVzu7tqy99L4IX8vTccBo/yqbiohz1CDGSjM4iYGnHggbnB9IOGzG3duAyNpg7l/zx8PWgq9VovdEHROLeWc7lo8cw2+6HWt8AnB54J9vBgi05fjCCiFqxlrCG3/Ont8sYuyCHp0LtZb9q0Pv7o/eyF1lnpubzEm7HGJj6k+cJNBZTWWXnIEfjYZ3DXjSe+/eZmvYi7sdzKC2t6/3H7WsOIYTDGp1F4HoNbbf98XliGm6eelzce26g7bSeLqcjZD6PxUWj9Q7Cc/oSAnyNNJ+qsA65ehGzcxhegdZsYbXfs4yPDbWziInb18AtNAF3dw3qh+SK3kuL95wckiPP8s+srdTvy2T3EU8SV71OwP3T6JPI2JpH3mvx2F3hTAFnmuKZPmcyzYeKMNrZsmjil5GXl0emQX/fFR+Cf7qSKPZQuusUnVodTlodTi4PrtT7HEIIRzY6PxPoPEb9Z18QnvwG0XEauJJPxeZt3AK6a97h38XLmBD/JtFJLlhaL9C8O5NLDbY/+xt3cr4kgNCU7Xyv+2vav67GeOIYXtPuX6SNlv1/puX5l4ha/jJqdf8fEXWeuISUBUHU/jGFU0aAJmo2ruP0ezmk/LyMD3L23znS8dChA1qaW+yHUHSd5MyBGqbPN1O5135YhouHB9CGqbnt3gvq8YwL88HJfzbPbph953U7j4j2OocQwqFJnsAw52H4LTtStWxPX07hZXsjtISsOMT84PfZsHSrLUj8bhriM3awOuRT0tO3c+GunYJfYN9J11fqe/Kce59DCOHYRudx0IihIfrxMFoObOMzOwXAWReEd+zrJM7QUlP8iZ0CADhFEBPRTtnHfxv8zVuJOYQQ3wjZCYxYQcTmHCR54nWM+9bx8foCWgd4g+7/TkAIMVxJqMyIdZWqX0RS1fOl1p2B/oZcXV37vC6/cyGGPzkOEkKIUUyR46BFixb1eT03N/dRlxBCCDEEFHtEdOOHG+2+nv6zdKWWEEIIoTA5DhJCiFFMoZ2AF5b5F+j6jhlVQyHqotWoBtGkTAghxP+XQjuBa6h2huK8ZS34zqN7Srgy0wohhBhSyh4HXTuMuhksOj9FpxVCCDE0FP5M4Ja1c2Zfs7rp8ffX4zGQfmpCCCGGhMJFwIylG1Dba3lspTdkkpeXx7J4qQJCCPFNU7wIqJoa4bFnsIzxVHZqIYQQilO4lbQZ1ZEsVOF/oCt9Hpxf+UDilsQQCiGE41B4J6DFMjUDC4U4vRuJ81/zcVJ2ASGEEApSvgj4+sNXn6O6dt3+EIkhFEIIh6F4EVCpgW47ObY2EkMohBCOQ+Ei4GYNVu/ufYTEEAohhONQtgiMmUb3WFDduNLLAA3Rk8PQ1H5KftnDs3aFEEIMLWV7BwWaUdXnoz5z3v6wnhjCbRJDKIQQjkChImDrHfSwYV0V5C54SZklhRBCPDJpJS2EEKOYYv8sJuExQggx/PwX1A2Apk4wKLYAAAAASUVORK5CYII=;" vertex="1" parent="1">
          <mxGeometry x="512.3900000000001" y="-400" width="307.61" height="159" as="geometry" />
        </mxCell>
        <mxCell id="et69Pq7bEssP9toq_pr5-13" value="&lt;div&gt;&lt;font color=&quot;#990000&quot;&gt;T:&lt;/font&gt;&lt;/div&gt;&lt;div&gt;&lt;font color=&quot;#990000&quot;&gt;&lt;span style=&quot;font-weight: normal;&quot;&gt;Todo template&lt;/span&gt;&lt;br&gt;&lt;/font&gt;&lt;/div&gt;" style="text;html=1;strokeColor=none;fillColor=none;align=left;verticalAlign=top;whiteSpace=wrap;rounded=0;glass=0;sketch=0;fontSize=14;fontStyle=1" vertex="1" parent="1">
          <mxGeometry x="20" y="-770" width="130" height="120" as="geometry" />
        </mxCell>
        <mxCell id="et69Pq7bEssP9toq_pr5-15" value="&lt;div&gt;&lt;font color=&quot;#990000&quot;&gt;T:&lt;/font&gt;&lt;/div&gt;&lt;div&gt;&lt;font color=&quot;#990000&quot;&gt;&lt;span style=&quot;font-weight: normal;&quot;&gt;I should probably figure out what FeatName, SubName, and TypeName are. Not to mention what all of these &#39;p&#39; variables are. &lt;/span&gt;&lt;br&gt;&lt;/font&gt;&lt;/div&gt;" style="text;html=1;strokeColor=none;fillColor=none;align=left;verticalAlign=top;whiteSpace=wrap;rounded=0;glass=0;sketch=0;fontSize=14;fontStyle=1" vertex="1" parent="1">
          <mxGeometry x="317.25" y="-400" width="185.5" height="170" as="geometry" />
        </mxCell>
        <mxCell id="et69Pq7bEssP9toq_pr5-16" value="&lt;div align=&quot;left&quot;&gt;In-progress musings:&lt;/div&gt;&lt;div align=&quot;left&quot;&gt;So, at the core of the issue, we should be checking the &#39;getSelection&#39; method to see if we have a single body selected. (Or part, or group?). If we do have a valid thing selected, we just go ahead and throw the mime-data generated object under that instead of the document. &lt;br&gt;&lt;/div&gt;&lt;div align=&quot;left&quot;&gt;&lt;br&gt;&lt;/div&gt;&lt;div align=&quot;left&quot;&gt;When watching the python Console, the functions removeObject, adjustRelativeLinks, and addObject are used to move a sketch out of a body and into a part. (Does this mean a lot of the GUI UX is written in python??)&lt;br&gt;&lt;/div&gt;" style="text;html=1;strokeColor=none;fillColor=none;align=left;verticalAlign=top;whiteSpace=wrap;rounded=0;glass=0;sketch=0;fontSize=14;fontColor=#330000;" vertex="1" parent="1">
          <mxGeometry x="1350" y="-660" width="330" height="320" as="geometry" />
        </mxCell>
      </root>
    </mxGraphModel>
  </diagram>
</mxfile>
